0
SECTION
2
HEADER
9
$INSUNITS
70
4
9
$ACADVER
1
AC1014
9
$HANDSEED
5
FFFF
0
ENDSEC
0
SECTION
2
TABLES
0
TABLE
2
VPORT
5
8
100
AcDbSymbolTable
0
ENDTAB
0
TABLE
2
LTYPE
5
5
100
AcDbSymbolTable
0
LTYPE
5
14
100
AcDbSymbolTableRecord
100
AcDbLinetypeTableRecord
2
BYBLOCK
70
0
0
LTYPE
5
15
100
AcDbSymbolTableRecord
100
AcDbLinetypeTableRecord
2
BYLAYER
70
0
0
LTYPE
5
16
100
AcDbSymbolTableRecord
100
AcDbLinetypeTableRecord
2
DASHED
70
0
3
Dashed __ __ __ __ __ __ __ __ __ __ __ __ __ _
72
65
73
2
40
0.75
49
0.5
74
0
49
-0.25
74
0
0
ENDTAB
0
TABLE
2
LAYER
5
2
100
AcDbSymbolTable
70
3
0
LAYER
5
50
100
AcDbSymbolTableRecord
100
AcDbLayerTableRecord
2
1
70
0
62
7
6
DASHED
0
LAYER
5
51
100
AcDbSymbolTableRecord
100
AcDbLayerTableRecord
2
0
70
0
62
7
6
CONTINUOUS
0
ENDTAB
0
TABLE
2
STYLE
5
3
100
AcDbSymbolTable
70
1
0
STYLE
5
11
100
AcDbSymbolTableRecord
100
AcDbTextStyleTableRecord
2
STANDARD
70
0
0
ENDTAB
0
TABLE
2
VIEW
5
6
100
AcDbSymbolTable
70
0
0
ENDTAB
0
TABLE
2
UCS
5
7
100
AcDbSymbolTable
70
0
0
ENDTAB
0
TABLE
2
APPID
5
9
100
AcDbSymbolTable
70
2
0
APPID
5
12
100
AcDbSymbolTableRecord
100
AcDbRegAppTableRecord
2
ACAD
70
0
0
ENDTAB
0
TABLE
2
DIMSTYLE
5
A
100
AcDbSymbolTable
70
1
0
ENDTAB
0
TABLE
2
BLOCK_RECORD
5
1
100
AcDbSymbolTable
70
1
0
BLOCK_RECORD
5
1F
100
AcDbSymbolTableRecord
100
AcDbBlockTableRecord
2
*MODEL_SPACE
0
BLOCK_RECORD
5
1B
100
AcDbSymbolTableRecord
100
AcDbBlockTableRecord
2
*PAPER_SPACE
0
ENDTAB
0
ENDSEC
0
SECTION
2
BLOCKS
0
BLOCK
5
20
100
AcDbEntity
100
AcDbBlockBegin
2
*MODEL_SPACE
0
ENDBLK
5
21
100
AcDbEntity
100
AcDbBlockEnd
0
BLOCK
5
1C
100
AcDbEntity
100
AcDbBlockBegin
2
*PAPER_SPACE
0
ENDBLK
5
1D
100
AcDbEntity
100
AcDbBlockEnd
0
ENDSEC
0
SECTION
2
ENTITIES
0
LWPOLYLINE
5
100
100
AcDbEntity
8
0
100
AcDbPolyline
90
3
70
1
43
0.0
10
-12.785953972832441
20
-14.195752600072247
10
-1.7633557831534685
20
-2.4270510192907202
10
-9.5498859471114841
20
-16.546893644276871
0
LWPOLYLINE
5
101
100
AcDbEntity
8
0
100
AcDbPolyline
90
3
70
1
43
0.0
10
9.5498859471114805
20
-16.546893644276878
10
1.7633557831534674
20
-2.4270510192907202
10
12.785953972832441
20
-14.195752600072254
0
LWPOLYLINE
5
102
100
AcDbEntity
8
0
100
AcDbPolyline
90
3
70
1
43
0.0
10
18.688108076832318
20
3.9692099196795239
10
2.8531695914009991
20
0.9270509969389773
10
17.452040080913687
20
7.773436041547523
0
LWPOLYLINE
5
103
100
AcDbEntity
8
0
100
AcDbPolyline
90
3
70
1
43
0.0
10
-2.0000000298023224
20
19.000000283122063
10
2.0000000298023224
20
19.000000283122063
10
0
20
3.0000000447034836
0
LWPOLYLINE
5
104
100
AcDbEntity
8
0
100
AcDbPolyline
90
3
70
1
43
0.0
10
-17.452040080913683
20
7.7734360415475301
10
-2.8531695914010013
20
0.92705099693897841
10
-18.688108076832322
20
3.9692099196795305
0
LWPOLYLINE
5
105
100
AcDbEntity
8
0
100
AcDbPolyline
90
3
70
1
43
0.0
10
-14.195752600072248
20
12.785953972832445
10
-2.4270510192907202
20
1.7633557831534685
10
-16.546893644276871
20
9.5498859471114841
0
LWPOLYLINE
5
106
100
AcDbEntity
8
0
100
AcDbPolyline
90
3
70
1
43
0.0
10
7.7734360415475336
20
17.45204008091368
10
0.92705099693897952
20
2.8531695914009991
10
3.9692099196795336
20
18.688108076832318
0
LWPOLYLINE
5
107
100
AcDbEntity
8
0
100
AcDbPolyline
90
3
70
1
43
0.0
10
19.000000283122063
20
-2.0000000298023264
10
3.0000000447034836
20
-5.5511151231257827e-16
10
19.000000283122063
20
2.0000000298023184
0
LWPOLYLINE
5
108
100
AcDbEntity
8
0
100
AcDbPolyline
90
3
70
1
43
0.0
10
3.9692099196795283
20
-18.688108076832322
10
0.92705099693897841
20
-2.8531695914010013
10
7.7734360415475283
20
-17.452040080913683
0
LWPOLYLINE
5
109
100
AcDbEntity
8
0
100
AcDbPolyline
90
3
70
1
43
0.0
10
-16.546893644276874
20
-9.5498859471114788
10
-2.4270510192907202
20
-1.7633557831534674
10
-14.19575260007225
20
-12.78595397283244
0
LWPOLYLINE
5
110
100
AcDbEntity
8
0
100
AcDbPolyline
90
3
70
1
43
0.0
10
-7.7734360415475319
20
-17.452040080913683
10
-0.92705099693897841
20
-2.8531695914010013
10
-3.9692099196795327
20
-18.688108076832322
0
LWPOLYLINE
5
111
100
AcDbEntity
8
0
100
AcDbPolyline
90
3
70
1
43
0.0
10
14.195752600072247
20
-12.785953972832447
10
2.4270510192907202
20
-1.7633557831534685
10
16.546893644276871
20
-9.5498859471114859
0
LWPOLYLINE
5
112
100
AcDbEntity
8
0
100
AcDbPolyline
90
3
70
1
43
0.0
10
16.546893644276874
20
9.5498859471114805
10
2.4270510192907202
20
1.7633557831534674
10
14.19575260007225
20
12.785953972832441
0
LWPOLYLINE
5
113
100
AcDbEntity
8
0
100
AcDbPolyline
90
3
70
1
43
0.0
10
-3.9692099196795305
20
18.688108076832318
10
-0.92705099693897841
20
2.8531695914009991
10
-7.7734360415475301
20
17.45204008091368
0
LWPOLYLINE
5
114
100
AcDbEntity
8
0
100
AcDbPolyline
90
3
70
1
43
0.0
10
-19.000000283122066
20
2.0000000298023188
10
-3.0000000447034836
20
-5.5511151231257827e-16
10
-19.000000283122066
20
-2.0000000298023273
0
LWPOLYLINE
5
115
100
AcDbEntity
8
0
100
AcDbPolyline
90
3
70
1
43
0.0
10
-9.5498859471114805
20
16.546893644276874
10
-1.7633557831534674
20
2.4270510192907202
10
-12.785953972832441
20
14.19575260007225
0
LWPOLYLINE
5
116
100
AcDbEntity
8
0
100
AcDbPolyline
90
3
70
1
43
0.0
10
12.785953972832447
20
14.195752600072248
10
1.7633557831534685
20
2.4270510192907202
10
9.5498859471114859
20
16.546893644276871
0
LWPOLYLINE
5
117
100
AcDbEntity
8
0
100
AcDbPolyline
90
3
70
1
43
0.0
10
17.452040080913676
20
-7.7734360415475301
10
2.8531695914009991
20
-0.92705099693897841
10
18.688108076832318
20
-3.9692099196795305
0
LWPOLYLINE
5
118
100
AcDbEntity
8
0
100
AcDbPolyline
90
3
70
1
43
0.0
10
-2.0000000298023246
20
-19.000000283122063
10
-2.7755575615628914e-16
20
-3.0000000447034836
10
2.0000000298023202
20
-19.000000283122063
0
LWPOLYLINE
5
119
100
AcDbEntity
8
0
100
AcDbPolyline
90
3
70
1
43
0.0
10
-18.688108076832322
20
-3.9692099196795305
10
-2.8531695914010013
20
-0.92705099693897841
10
-17.452040080913683
20
-7.7734360415475301
0
CIRCLE
5
120
100
AcDbEntity
8
0
100
AcDbCircle
10
0
20
0
30
0
40
1.3999999999999999
210
0
220
0
230
1
0
CIRCLE
5
121
100
AcDbEntity
8
0
100
AcDbCircle
10
0
20
0
30
0
40
20
210
0
220
-0
230
1
0
ENDSEC
0
SECTION
2
OBJECTS
0
DICTIONARY
5
C
100
AcDbDictionary
3
ACAD_GROUP
350
D
3
ACAD_MLINESTYLE
350
17
0
DICTIONARY
5
D
100
AcDbDictionary
0
DICTIONARY
5
1A
330
C
100
AcDbDictionary
0
DICTIONARY
5
17
100
AcDbDictionary
0
ENDSEC
0
EOF
